<svg version="1.1" xmlns="http://www.w3.org/2000/svg" xmlns:xlink="http://www.w3.org/1999/xlink">

    <symbol id="logo" viewBox="0 0 167 65" fill="none" xmlns="http://www.w3.org/2000/svg">
        <path d="M27.0227 44V20.7273H42.4318V24.7841H31.9432V30.3295H41.4091V34.3864H31.9432V44H27.0227ZM58.0466 44H52.7739L60.808 20.7273H67.1489L75.1716 44H69.8989L64.0693 26.0455H63.8875L58.0466 44ZM57.717 34.8523H70.1716V38.6932H57.717V34.8523ZM101.266 27.4205C101.176 26.5038 100.785 25.7917 100.096 25.2841C99.4066 24.7765 98.471 24.5227 97.2892 24.5227C96.4862 24.5227 95.8081 24.6364 95.2551 24.8636C94.7021 25.0833 94.2778 25.3902 93.9824 25.7841C93.6945 26.178 93.5506 26.625 93.5506 27.125C93.5354 27.5417 93.6225 27.9053 93.8119 28.2159C94.0089 28.5265 94.2778 28.7955 94.6188 29.0227C94.9597 29.2424 95.3536 29.4356 95.8006 29.6023C96.2475 29.7614 96.7248 29.8977 97.2324 30.0114L99.3233 30.5114C100.338 30.7386 101.27 31.0417 102.119 31.4205C102.967 31.7992 103.702 32.2652 104.323 32.8182C104.945 33.3712 105.426 34.0227 105.766 34.7727C106.115 35.5227 106.293 36.3826 106.301 37.3523C106.293 38.7765 105.929 40.0114 105.21 41.0568C104.498 42.0947 103.467 42.9015 102.119 43.4773C100.778 44.0455 99.1604 44.3295 97.2665 44.3295C95.3877 44.3295 93.7513 44.0417 92.3574 43.4659C90.971 42.8902 89.8877 42.0379 89.1074 40.9091C88.3347 39.7727 87.9294 38.3674 87.8915 36.6932H92.6528C92.7059 37.4735 92.9294 38.125 93.3233 38.6477C93.7248 39.1629 94.2589 39.553 94.9256 39.8182C95.5998 40.0758 96.3612 40.2045 97.2097 40.2045C98.043 40.2045 98.7665 40.0833 99.3801 39.8409C100.001 39.5985 100.482 39.2614 100.823 38.8295C101.164 38.3977 101.335 37.9015 101.335 37.3409C101.335 36.8182 101.179 36.3788 100.869 36.0227C100.566 35.6667 100.119 35.3636 99.5278 35.1136C98.9445 34.8636 98.2286 34.6364 97.3801 34.4318L94.846 33.7955C92.8839 33.3182 91.3347 32.572 90.1983 31.5568C89.0619 30.5417 88.4975 29.1742 88.5051 27.4545C88.4975 26.0455 88.8725 24.8144 89.6301 23.7614C90.3953 22.7083 91.4445 21.8864 92.7778 21.2955C94.1112 20.7045 95.6263 20.4091 97.3233 20.4091C99.0506 20.4091 100.558 20.7045 101.846 21.2955C103.141 21.8864 104.149 22.7083 104.869 23.7614C105.588 24.8144 105.96 26.0341 105.982 27.4205H101.266ZM119.924 24.7841V20.7273H139.037V24.7841H131.912V44H127.049V24.7841H119.924Z" fill="#0C144D"/>
        <rect x="1.5" y="1.5" width="164" height="62" rx="7.5" stroke="black" stroke-width="3"/>
    </symbol>


    <symbol id="logo-table" viewBox="0 0 106 60" fill="none" xmlns="http://www.w3.org/2000/svg">
        <path d="M17.2839 38V23.2281H27.0645V25.8031H20.407V29.3229H26.4154V31.8979H20.407V38H17.2839ZM36.9757 38H33.6289L38.7284 23.2281H42.7532L47.8454 38H44.4987L40.7985 26.6037H40.6831L36.9757 38ZM36.7665 32.1937H44.6718V34.6316H36.7665V32.1937ZM64.4087 27.4765C64.351 26.8946 64.1033 26.4426 63.6657 26.1204C63.2282 25.7983 62.6343 25.6372 61.8842 25.6372C61.3745 25.6372 60.9441 25.7093 60.5931 25.8536C60.242 25.993 59.9728 26.1878 59.7852 26.4378C59.6025 26.6879 59.5111 26.9716 59.5111 27.2889C59.5015 27.5534 59.5568 27.7842 59.677 27.9814C59.8021 28.1785 59.9728 28.3492 60.1891 28.4935C60.4055 28.6329 60.6556 28.7555 60.9393 28.8613C61.223 28.9623 61.5259 29.0489 61.8481 29.121L63.1753 29.4384C63.8196 29.5826 64.4111 29.7749 64.9496 30.0154C65.4882 30.2558 65.9546 30.5515 66.3489 30.9026C66.7432 31.2536 67.0486 31.6671 67.2649 32.1432C67.4861 32.6192 67.5991 33.165 67.604 33.7805C67.5991 34.6845 67.3683 35.4683 66.9115 36.1319C66.4595 36.7906 65.8055 37.3028 64.9496 37.6682C64.0985 38.0289 63.0719 38.2092 61.8697 38.2092C60.6772 38.2092 59.6386 38.0264 58.7538 37.661C57.8738 37.2955 57.1862 36.7546 56.6909 36.0381C56.2004 35.3168 55.9432 34.4248 55.9191 33.3621H58.9413C58.975 33.8574 59.1168 34.271 59.3669 34.6027C59.6217 34.9297 59.9607 35.1774 60.3839 35.3457C60.8119 35.5092 61.2951 35.5909 61.8337 35.5909C62.3626 35.5909 62.8218 35.514 63.2113 35.3601C63.6056 35.2062 63.911 34.9922 64.1274 34.7182C64.3437 34.4441 64.4519 34.1291 64.4519 33.7733C64.4519 33.4415 64.3534 33.1626 64.1562 32.9366C63.9639 32.7106 63.6802 32.5182 63.3051 32.3596C62.9348 32.2009 62.4804 32.0566 61.9419 31.9268L60.3334 31.5229C59.088 31.2199 58.1046 30.7463 57.3833 30.1019C56.6621 29.4576 56.3038 28.5896 56.3086 27.4981C56.3038 26.6037 56.5418 25.8223 57.0227 25.1539C57.5084 24.4855 58.1744 23.9638 59.0207 23.5887C59.867 23.2137 60.8287 23.0261 61.9058 23.0261C63.0022 23.0261 63.9591 23.2137 64.7765 23.5887C65.5988 23.9638 66.2383 24.4855 66.6951 25.1539C67.1519 25.8223 67.3876 26.5965 67.402 27.4765H64.4087ZM76.2511 25.8031V23.2281H88.3831V25.8031H83.8606V38H80.7735V25.8031H76.2511Z" fill="#0C144D"/>
        <rect x="1" y="1" width="104" height="58" rx="4.71257" stroke="black" stroke-width="2"/>
    </symbol>

    <symbol id="logo-mobile" viewBox="0 0 50 50" fill="none" xmlns="http://www.w3.org/2000/svg">
        <path d="M20.2839 33V18.2281H30.0645V20.8031H23.407V24.3229H29.4154V26.8979H23.407V33H20.2839Z" fill="#0C144D"/>
        <rect x="1" y="1" width="48" height="48" rx="4.71257" stroke="black" stroke-width="2"/>
    </symbol>



    <symbol id="slider-arrow" viewBox="0 0 83 83" fill="none" xmlns="http://www.w3.org/2000/svg">
        <rect width="83" height="83" rx="16" fill="#0C144D"/>
        <path d="M36 29L48.5 41.5L36 54" stroke="#F0F0F0" stroke-width="4" stroke-linecap="round" stroke-linejoin="round"/>
    </symbol>


    <symbol id="products-elipse" viewBox="0 0 61 61" fill="none" xmlns="http://www.w3.org/2000/svg">
        <circle cx="30.5" cy="30.5" r="30.5" fill="#0C144D"/>
        <path d="M30 20V41" stroke="white" stroke-width="4" stroke-linecap="round" stroke-linejoin="round"/>
        <path d="M40.5 30.5L19.5 30.5" stroke="white" stroke-width="4" stroke-linecap="round" stroke-linejoin="round"/>
    </symbol>































</svg>
