<svg width="20" height="20" viewBox="0 0 20 20" fill="none" xmlns="http://www.w3.org/2000/svg">
<path d="M10.0002 1.25C5.85793 1.25 2.50018 4.60775 2.50018 8.75C2.50018 10.8204 3.33906 12.695 4.69581 14.0521C6.05293 15.41 9.25018 17.375 9.43768 19.4375C9.4658 19.7467 9.68968 20 10.0002 20C10.3107 20 10.5346 19.7467 10.5627 19.4375C10.7502 17.375 13.9474 15.41 15.3046 14.0521C16.6613 12.695 17.5002 10.8204 17.5002 8.75C17.5002 4.60775 14.1424 1.25 10.0002 1.25Z" fill="#FF4433"/>
<path d="M10.0002 11.375C11.45 11.375 12.6252 10.1997 12.6252 8.75C12.6252 7.30025 11.45 6.125 10.0002 6.125C8.55048 6.125 7.37521 7.30025 7.37521 8.75C7.37521 10.1997 8.55048 11.375 10.0002 11.375Z" fill="white"/>
</svg>
