<svg width="75" height="70" viewBox="0 0 75 70" fill="none" xmlns="http://www.w3.org/2000/svg">
<path d="M74.5763 65.2193C74.0256 66.3672 73.1092 66.8264 71.862 66.6824C71.6227 66.6552 71.3756 66.698 71.1343 66.6747C69.9689 66.5638 69.0991 66.6747 68.4746 68.0113C67.7839 69.492 66.2584 70.0913 64.6104 69.9765C62.8457 69.852 61.5401 68.9375 60.8611 67.2856C60.651 66.7758 60.3941 66.6688 59.9038 66.6708C54.9287 66.6844 49.9516 66.6805 44.9765 66.6805C44.7605 66.6805 44.5446 66.6805 44.3189 66.6805C44.2216 66.912 44.1418 67.1144 44.0543 67.3128C43.3421 68.955 41.7233 70.0621 39.9819 69.9979C38.1238 69.9279 36.7346 69.0465 35.9952 67.3167C35.7715 66.7953 35.5224 66.6455 34.9893 66.6688C34.0203 66.7136 33.0475 66.6824 32.0766 66.6805C30.5512 66.6766 29.8391 65.982 29.8352 64.4683C29.8274 61.4524 29.8332 58.4366 29.8332 55.4208C29.8332 55.1601 29.8332 54.8974 29.8332 54.5491C29.4733 54.5491 29.1911 54.5491 28.9071 54.5491C20.1456 54.5491 11.3823 54.5491 2.62084 54.5491C0.679046 54.5491 0.00972908 53.872 0.00778339 51.9127C0.00778339 45.7118 0.00778339 39.509 0.00778339 33.3081C0.00778339 33.0649 -0.0194562 32.8158 0.0252946 32.5804C0.136199 31.9811 0.496151 31.627 1.1285 31.6387C1.72583 31.6503 2.06437 32.0006 2.17333 32.5648C2.21808 32.8002 2.19279 33.0493 2.19279 33.2925C2.19279 39.3241 2.19279 45.3558 2.19279 51.3854C2.19279 51.6754 2.19279 51.9653 2.19279 52.3058C11.3978 52.3058 20.5581 52.3058 29.7982 52.3058C29.8099 52.0528 29.8313 51.794 29.8313 51.5372C29.8332 49.3736 29.8313 47.2081 29.8332 45.0444C29.8352 43.3167 30.4734 42.6863 32.2186 42.6843C34.2577 42.6804 36.2968 42.6843 38.3359 42.6843C38.5966 42.6843 38.8573 42.6843 39.1784 42.6843C39.1784 42.375 39.1784 42.1609 39.1784 41.9469C39.1784 36.8395 39.1764 31.7321 39.1823 26.6266C39.1823 26.1868 39.1453 25.858 38.6569 25.6421C33.1545 23.2197 27.6638 20.7739 22.1692 18.336C22.0836 18.2971 21.9921 18.2737 21.8053 18.2076C21.7917 18.5092 21.7703 18.7621 21.7703 19.015C21.7664 20.6436 21.78 22.2741 21.7645 23.9026C21.7489 25.5525 20.5679 26.3133 19.0541 25.644C13.7794 23.3072 8.51044 20.9607 3.23762 18.6181C2.93215 18.4819 2.62279 18.3516 2.2317 18.1803C2.21614 18.5092 2.19279 18.7621 2.19279 19.015C2.19084 21.8363 2.19668 24.6575 2.18501 27.4788C2.18112 28.2084 1.72388 28.6929 1.10126 28.6948C0.47864 28.6968 0.0389144 28.2143 0.0058377 27.4866C6.4168e-07 27.3659 0.00389202 27.2434 0.00389202 27.1227C0.00389202 24.1069 0.00194633 21.0911 0.00389202 18.0753C0.0058377 16.1374 1.22384 15.3319 2.9769 16.1101C8.24972 18.4488 13.5225 20.7895 18.7953 23.1282C19.0133 23.2236 19.2351 23.3053 19.5775 23.4434C19.5775 22.9765 19.5775 22.599 19.5775 22.2215C19.5775 20.7623 19.56 19.303 19.5833 17.8437C19.6106 16.1977 20.8636 15.3863 22.3676 16.0342C24.0331 16.7522 25.6889 17.4955 27.4926 18.2932C27.4926 17.9488 27.4926 17.6998 27.4926 17.4507C27.4926 13.2675 27.4906 9.08425 27.4926 4.90102C27.4926 3.07013 28.156 2.41249 30.0044 2.4086C31.7283 2.4047 33.4503 2.39692 35.1741 2.41054C36.7715 2.42416 37.4817 3.13628 37.4837 4.74342C37.4914 10.4346 37.4973 16.1257 37.472 21.8149C37.47 22.4784 37.5887 22.9103 38.2911 23.101C38.7542 23.2255 39.1803 23.4823 39.6239 23.6769C40.7972 24.1906 41.3595 25.0836 41.3575 26.3678C41.3497 31.4752 41.3536 36.5827 41.3556 41.6901C41.3556 41.98 41.3556 42.2699 41.3556 42.6824C41.6747 42.6824 41.9529 42.6824 42.2311 42.6824C46.0175 42.6824 49.8038 42.6804 53.5901 42.6824C55.4093 42.6824 56.0553 43.3264 56.0591 45.1242C56.0591 45.6573 56.0591 46.1924 56.0591 46.8423C56.3452 46.8423 56.6 46.8423 56.853 46.8423C59.4738 46.8423 62.0966 46.8539 64.7175 46.8364C65.6222 46.8306 66.3635 47.1263 66.9997 47.7684C69.2042 49.9962 71.4359 52.1968 73.6248 54.4402C74.0178 54.8429 74.2591 55.3955 74.5685 55.88C74.5763 58.9931 74.5763 62.1062 74.5763 65.2193ZM53.8566 44.9238C46.5564 44.9238 39.3223 44.9238 32.0747 44.9238C32.0747 48.9417 32.0747 52.907 32.0747 56.8548C39.3671 56.8548 46.6012 56.8548 53.8566 56.8548C53.8566 52.8681 53.8566 48.9397 53.8566 44.9238ZM72.3582 57.242C72.0663 57.242 71.8056 57.242 71.5468 57.242C68.103 57.242 64.6571 57.242 61.2133 57.242C59.2384 57.242 58.5846 56.5921 58.5846 54.6386C58.5846 53.0354 58.5866 51.4302 58.5827 49.827C58.5827 49.5721 58.5574 49.3191 58.5438 49.0701C57.6838 49.0701 56.9153 49.0701 56.1117 49.0701C56.1117 54.2164 56.1117 59.3258 56.1117 64.4897C57.5359 64.4897 58.9135 64.5033 60.291 64.4702C60.4506 64.4663 60.6743 64.2289 60.7521 64.0499C61.5343 62.2424 62.8963 61.2559 64.8537 61.1839C66.667 61.1178 68.2236 62.2365 69.0233 64.0538C69.0972 64.2231 69.2762 64.4624 69.4143 64.4683C70.3969 64.5033 71.3795 64.4877 72.3601 64.4877C72.3582 62.0303 72.3582 59.6799 72.3582 57.242ZM53.8527 59.1507C46.5584 59.1507 39.3185 59.1507 32.0533 59.1507C32.0533 60.9368 32.0533 62.6763 32.0533 64.4916C33.0533 64.4916 34.0184 64.4624 34.9815 64.5033C35.5049 64.5266 35.7676 64.3943 35.9933 63.8651C36.7307 62.1334 38.116 61.2501 39.9761 61.1839C41.7214 61.1197 43.3324 62.2151 44.0504 63.8612C44.136 64.0597 44.2177 64.2601 44.2955 64.443C47.4942 64.443 50.6599 64.443 53.8527 64.443C53.8527 62.6724 53.8527 60.9524 53.8527 59.1507ZM35.2617 11.4969C33.3899 11.4969 31.5629 11.4969 29.6834 11.4969C29.6834 14.0088 29.6737 16.4604 29.7029 18.9119C29.7048 19.0987 29.948 19.3614 30.1426 19.4567C31.1252 19.9295 32.1272 20.3595 33.1234 20.7992C33.8199 21.1067 34.5184 21.4063 35.2597 21.7273C35.2617 18.2543 35.2617 14.8863 35.2617 11.4969ZM70.9689 55.0064C70.9534 54.9169 70.9612 54.8566 70.9359 54.8313C69.105 52.9867 67.2741 51.1442 65.4354 49.3094C65.3206 49.1946 65.1552 49.0584 65.0132 49.0565C63.6181 49.037 62.2211 49.0448 60.828 49.0448C60.828 51.0936 60.828 53.0451 60.828 55.0064C64.2485 55.0064 67.6049 55.0064 70.9689 55.0064ZM29.7476 4.63641C29.7476 6.22409 29.7476 7.71643 29.7476 9.19515C31.6213 9.19515 33.4289 9.19515 35.2539 9.19515C35.2539 7.65028 35.2539 6.15794 35.2539 4.63641C33.3919 4.63641 31.5824 4.63641 29.7476 4.63641ZM42.2292 65.6571C42.272 64.4624 41.27 63.4001 40.0636 63.3631C38.8962 63.3281 37.8689 64.2912 37.8067 65.482C37.7444 66.6902 38.7056 67.7487 39.9236 67.8109C41.1026 67.8751 42.1864 66.8614 42.2292 65.6571ZM64.9003 67.8168C66.0911 67.807 67.1301 66.7447 67.1068 65.5578C67.0854 64.3554 66.023 63.332 64.8361 63.367C63.6609 63.402 62.6667 64.4177 62.6648 65.5851C62.6628 66.7739 63.7154 67.8265 64.9003 67.8168Z" fill="#0C144D"/>
<path d="M65.3985 14.5514C65.3985 15.3025 65.3732 16.0068 65.416 16.7053C65.4276 16.8862 65.6105 17.1353 65.7818 17.217C67.6613 18.1334 68.5446 19.6413 68.5407 21.7154C68.533 24.8285 68.5641 27.9397 68.5291 31.0528C68.4999 33.5336 66.9803 35.2827 64.6163 35.666C61.869 36.1116 59.577 34.95 58.8201 32.6716C58.6333 32.1093 58.5633 31.4828 58.5613 30.8855C58.5419 26.2411 58.5496 21.5968 58.5496 16.9524C58.5496 16.6858 58.5496 16.4212 58.5496 15.9815C58.285 16.2091 58.1041 16.3376 57.9543 16.4971C56.7674 17.7754 56.0922 19.2794 56.0806 21.0325C56.0592 24.5095 56.0455 27.9864 56.0786 31.4633C56.1117 35.0298 58.8006 37.8899 62.3768 38.1799C64.6533 38.3647 66.8461 38.1448 68.6633 36.526C70.2646 35.0979 71.0157 33.2962 71.0234 31.1656C71.0254 30.7279 71.0137 30.2901 71.041 29.8543C71.0799 29.2277 71.4379 28.8736 72.0547 28.8211C72.6423 28.7705 73.1228 29.1791 73.1832 29.8192C73.8136 36.3781 69.1322 40.2773 64.3186 40.4096C61.7717 40.4797 59.3805 40.1119 57.3355 38.4639C55.1525 36.705 53.9734 34.4188 53.8917 31.6015C53.8586 30.4847 53.8858 29.3678 53.8858 28.1907C53.522 28.1031 53.1757 28.0253 52.8332 27.9339C48.8387 26.8735 46.1323 23.4354 46.0681 19.2191C46.0155 15.7675 46.0058 12.3139 46.07 8.86223C46.1595 4.04666 49.9789 0.233109 54.7886 0.0190835C57.5924 -0.10544 60.2074 0.347905 62.371 2.31694C64.3206 4.09335 65.3381 6.30365 65.3868 8.94784C65.4062 10.0394 65.3907 11.129 65.3907 12.0006C66.7896 12.6446 68.1575 13.0727 69.2976 13.8393C71.8912 15.5826 73.1365 18.1432 73.1987 21.2679C73.2201 22.3614 73.2162 23.4568 73.1987 24.5503C73.187 25.4123 72.7707 25.8773 72.0741 25.8598C71.4067 25.8422 71.041 25.4006 71.0215 24.56C70.9904 23.1514 71.0468 21.7349 70.9262 20.334C70.6868 17.4836 68.175 14.8686 65.3985 14.5514ZM60.7327 24.3752C62.1784 23.3284 63.1862 21.3321 63.2018 19.437C63.2271 15.9134 63.2388 12.3878 63.1998 8.86223C63.1668 5.82307 61.0557 3.16331 58.0885 2.47065C57.0884 2.23717 56.0202 2.2002 54.9871 2.22744C51.2008 2.32667 48.3348 5.17516 48.2608 8.97119C48.1928 12.4209 48.2025 15.8745 48.2608 19.3261C48.3114 22.3556 50.2688 24.8772 53.0998 25.7352C53.3371 25.8072 53.5881 25.8364 53.8839 25.8948C53.8839 25.1632 53.8625 24.5328 53.8917 23.9024C53.9111 23.5094 53.7905 23.3148 53.415 23.1358C51.7028 22.3244 50.7688 20.9313 50.7397 19.044C50.691 15.7636 50.6871 12.4812 50.7397 9.19884C50.7786 6.76867 52.483 4.98837 54.8859 4.72181C59.1119 4.2529 60.9039 7.08971 60.7561 9.9129C60.6335 12.2652 60.7308 14.6273 60.7308 16.9855C60.7327 19.4137 60.7327 21.84 60.7327 24.3752ZM65.416 19.5616C65.1163 22.8031 63.6979 25.2488 61.0401 26.9513C60.8786 27.0544 60.7502 27.3326 60.7463 27.533C60.721 28.7958 60.7133 30.0605 60.7444 31.3233C60.7697 32.3292 61.4701 33.1911 62.4585 33.4207C62.9236 33.5277 63.4197 33.5355 63.9003 33.5297C65.3343 33.5083 66.3207 32.6035 66.3363 31.1812C66.3733 27.9261 66.3538 24.669 66.3421 21.4139C66.3382 20.7095 66.0931 20.0947 65.416 19.5616ZM53.8586 20.8418C54.1446 17.6159 55.5669 15.1546 58.2597 13.4541C58.4173 13.3548 58.5321 13.063 58.536 12.8587C58.5613 11.6426 58.5652 10.4266 58.5399 9.21051C58.5224 8.28436 58.0982 7.51971 57.246 7.17921C56.6623 6.94573 55.9755 6.89903 55.3334 6.90098C53.9247 6.90293 52.9324 7.86993 52.9208 9.28056C52.8916 12.5143 52.9013 15.75 52.9188 18.9837C52.9227 19.7055 53.1718 20.3457 53.8586 20.8418Z" fill="#0C144D"/>
<path d="M30.4908 39.8533C29.5219 39.8533 28.551 39.8669 27.582 39.8494C26.4944 39.828 25.8076 39.1567 25.792 38.073C25.7706 36.5184 25.7725 34.9638 25.792 33.4111C25.8056 32.3254 26.4808 31.6444 27.5781 31.6308C29.5161 31.6074 31.4559 31.6055 33.3938 31.6327C34.462 31.6464 35.1177 32.304 35.1352 33.3702C35.1624 34.9482 35.1624 36.5281 35.1352 38.106C35.1157 39.2015 34.4425 39.8319 33.3257 39.8513C32.3801 39.8669 31.4364 39.8552 30.4908 39.8533ZM32.9152 37.6371C32.9152 36.3316 32.9152 35.1058 32.9152 33.8508C31.2594 33.8508 29.6503 33.8508 28.0237 33.8508C28.0237 35.1389 28.0237 36.3841 28.0237 37.6371C29.6698 37.6371 31.2633 37.6371 32.9152 37.6371Z" fill="#0C144D"/>
<path d="M10.8569 39.8555C9.91134 39.8555 8.96574 39.8691 8.02208 39.8516C6.90331 39.8321 6.24567 39.2134 6.22232 38.0927C6.19119 36.5147 6.18924 34.9348 6.22427 33.3588C6.24761 32.2867 6.90526 31.6466 7.98122 31.633C9.91913 31.6077 11.859 31.6096 13.7969 31.633C14.8826 31.6466 15.5577 32.3354 15.5733 33.4269C15.5966 34.9815 15.6005 36.5361 15.5713 38.0888C15.5519 39.1745 14.8573 39.8185 13.7638 39.8535C13.7152 39.8555 13.6665 39.8555 13.6179 39.8555C12.6995 39.8555 11.7792 39.8555 10.8569 39.8555ZM13.3708 33.8511C11.7014 33.8511 10.0923 33.8511 8.45597 33.8511C8.45597 35.1352 8.45597 36.3746 8.45597 37.6121C10.1273 37.6121 11.7364 37.6121 13.3708 37.6121C13.3708 36.3532 13.3708 35.1469 13.3708 33.8511Z" fill="#0C144D"/>
</svg>
