<svg width="86" height="54" viewBox="0 0 86 54" fill="none" xmlns="http://www.w3.org/2000/svg">
<path d="M0.637924 17.8214C2.05829 15.3785 3.46531 12.9268 4.91235 10.4973C5.3169 9.81711 6.0393 9.6793 6.63724 10.055C7.24183 10.435 7.39743 11.1552 6.96398 11.8821C5.81703 13.8159 4.63228 15.7275 3.49643 17.6658C3.29638 18.0059 3.14968 18.4371 3.14968 18.8261C3.1319 29.5266 3.13412 40.2271 3.13634 50.9276C3.13634 51.0654 3.15412 51.2032 3.16746 51.4077C7.62193 51.4077 12.0675 51.4077 16.5887 51.4077C16.5887 35.148 16.5887 18.8817 16.5887 2.49969C15.3617 2.49969 14.1214 2.47524 12.8855 2.52414C12.6877 2.53081 12.4543 2.82644 12.3209 3.03983C11.6007 4.19345 10.9161 5.36931 10.2048 6.52738C9.69802 7.34982 8.98672 7.57432 8.331 7.14977C7.69973 6.74077 7.59303 6.05171 8.07093 5.24706C8.85113 3.93561 9.64912 2.63306 10.4338 1.32606C10.9672 0.436939 11.7519 0.00794047 12.7766 0.00571768C13.8858 0.00571768 14.9949 0.00571768 16.1041 0.00794047C18.2402 0.0101633 19.156 0.910394 19.1582 3.02871C19.1604 9.33699 19.1582 15.6475 19.1582 21.9558C19.1582 22.2825 19.1582 22.6093 19.1582 22.9916C20.5408 22.9916 21.83 22.9916 23.2459 22.9916C23.2459 22.6848 23.2459 22.3914 23.2459 22.0958C23.2459 18.4549 23.2437 14.8139 23.2481 11.173C23.2504 9.40145 24.0083 8.6457 25.7821 8.64348C30.1366 8.63904 34.491 8.63904 38.8455 8.64348C40.5992 8.6457 41.3817 9.42813 41.3861 11.1886C41.3928 14.8006 41.3883 18.4149 41.3883 22.0269C41.3883 22.327 41.3883 22.6293 41.3883 22.9871C42.6331 22.9871 43.809 22.9871 45.1004 22.9871C45.1004 22.6848 45.1004 22.3892 45.1004 22.0958C45.1004 18.5104 45.0982 14.9251 45.1004 11.3397C45.1026 9.40145 45.8428 8.6457 47.7411 8.64348C52.0666 8.64126 56.3944 8.63904 60.7199 8.64348C62.4848 8.6457 63.2339 9.40368 63.2361 11.1908C63.2406 14.8028 63.2384 18.4171 63.2384 22.0291C63.2384 22.3292 63.2384 22.6271 63.2384 22.9849C64.6076 22.9849 65.8968 22.9849 67.3261 22.9849C67.3261 22.6582 67.3261 22.3381 67.3261 22.0202C67.3261 15.712 67.3261 9.40145 67.3261 3.09317C67.3261 0.89928 68.2174 0.00571768 70.3957 0.00571768C71.4782 0.00571768 72.5585 0.0101633 73.641 0.00349489C74.6991 -0.00317349 75.5059 0.423602 76.0594 1.34161C79.1402 6.45181 82.241 11.5487 85.2907 16.6766C85.6263 17.2435 85.8086 17.9836 85.8175 18.6483C85.8686 22.2603 85.8441 25.8746 85.8397 29.4866C85.8375 30.518 85.3618 31.0959 84.5571 31.0737C83.7903 31.0514 83.3479 30.4891 83.3457 29.4977C83.3413 25.9968 83.3591 22.4937 83.3257 18.9928C83.3213 18.5238 83.1768 17.997 82.9367 17.5947C80.0471 12.7601 77.1175 7.94552 74.2234 3.11318C73.9411 2.64195 73.6366 2.47301 73.0987 2.49524C72.0517 2.53748 71.0003 2.50858 69.8778 2.50858C69.8778 18.8394 69.8778 35.1036 69.8778 51.4233C74.3434 51.4233 78.7934 51.4233 83.3413 51.4233C83.3413 51.1032 83.3413 50.8076 83.3413 50.512C83.3413 45.7863 83.3413 41.0629 83.3413 36.3372C83.3413 36.1149 83.3302 35.8904 83.3479 35.6704C83.408 34.9369 83.8881 34.4612 84.566 34.4501C85.2773 34.439 85.7775 34.9302 85.833 35.706C85.8441 35.8727 85.8375 36.0394 85.8375 36.2061C85.8375 41.2652 85.8397 46.322 85.8375 51.3811C85.8375 53.2015 85.0751 53.9751 83.2724 53.9773C78.8068 53.9817 74.3412 53.9817 69.8778 53.9773C68.0507 53.9751 67.3216 53.2371 67.3194 51.3855C67.315 47.6334 67.3172 43.8814 67.3172 40.1293C67.3172 39.8315 67.3172 39.5336 67.3172 39.1957C60.5999 39.1957 53.9827 39.1957 47.2521 39.1957C47.2521 39.5091 47.2521 39.8048 47.2521 40.0982C47.2521 43.8792 47.2543 47.6579 47.2498 51.4389C47.2476 53.2126 46.4896 53.9706 44.7203 53.9795C43.7489 53.984 42.7798 53.9817 41.8084 53.9795C39.9746 53.9751 39.2211 53.2327 39.2189 51.4189C39.2144 47.6668 39.2189 43.9147 39.2189 40.1626C39.2189 39.8626 39.2189 39.5625 39.2189 39.2091C32.5283 39.2091 25.9133 39.2091 19.1916 39.2091C19.1782 39.4869 19.1538 39.7759 19.1538 40.0671C19.1515 43.848 19.156 47.6268 19.1493 51.4077C19.1471 53.2371 18.4025 53.9773 16.5709 53.9795C12.2164 53.9817 7.86199 53.9506 3.50755 53.9995C2.22944 54.0129 1.23586 53.695 0.631256 52.5102C0.637924 40.9473 0.637924 29.3843 0.637924 17.8214ZM19.2116 36.5951C35.2734 36.5951 51.2597 36.5951 67.2705 36.5951C67.2705 32.9097 67.2705 29.2821 67.2705 25.6034C51.2331 25.6034 35.249 25.6034 19.2116 25.6034C19.2116 29.2799 19.2116 32.9075 19.2116 36.5951ZM38.8255 23.0027C38.8255 18.9928 38.8255 15.094 38.8255 11.2064C37.8919 11.2064 37.0206 11.2064 36.0981 11.2064C36.0981 12.5689 36.1159 13.8715 36.0936 15.1718C36.0714 16.3743 35.3023 17.1323 34.0998 17.1545C33.0195 17.1745 31.9393 17.1612 30.859 17.159C29.1963 17.1545 28.4939 16.4544 28.4828 14.7762C28.4761 13.5914 28.4806 12.4067 28.4806 11.2064C27.5137 11.2064 26.649 11.2064 25.7955 11.2064C25.7955 15.1718 25.7955 19.0728 25.7955 23.0005C30.1632 23.0027 34.4732 23.0027 38.8255 23.0027ZM47.641 22.9849C52.0155 22.9849 56.3433 22.9849 60.6955 22.9849C60.6955 19.0239 60.6955 15.1229 60.6955 11.2041C59.7819 11.2041 58.915 11.2041 58.0015 11.2041C58.0015 12.5134 58.0237 13.7603 57.9948 15.0096C57.9637 16.421 57.2102 17.1457 55.8076 17.1568C54.754 17.1657 53.7026 17.1634 52.649 17.1568C51.0886 17.1501 50.3906 16.441 50.3862 14.8517C50.3817 13.6381 50.3862 12.4267 50.3862 11.1908C49.4171 11.1908 48.5479 11.1908 47.6455 11.1908C47.641 15.1451 47.641 19.0439 47.641 22.9849ZM44.707 51.4366C44.707 47.3356 44.707 43.279 44.707 39.2068C43.6978 39.2068 42.7442 39.2068 41.7929 39.2068C41.7929 43.3146 41.7929 47.3712 41.7929 51.4366C42.7954 51.4366 43.7267 51.4366 44.707 51.4366ZM31.0324 11.1775C31.0324 12.3578 31.0324 13.4758 31.0324 14.6094C31.9037 14.6094 32.7172 14.6094 33.553 14.6094C33.553 13.4447 33.553 12.3266 33.553 11.1775C32.7083 11.1775 31.917 11.1775 31.0324 11.1775ZM55.4497 14.6117C55.4497 13.4469 55.4497 12.3289 55.4497 11.1908C54.5806 11.1908 53.7671 11.1908 52.8779 11.1908C52.8779 11.7821 52.8779 12.3289 52.8779 12.8757C52.8779 13.4469 52.8779 14.0204 52.8779 14.6117C53.7893 14.6117 54.6028 14.6117 55.4497 14.6117Z" fill="#0C144D"/>
<path d="M12.3743 23.5208C11.5629 23.512 10.9961 23.0118 10.9872 22.2983C10.9784 21.5648 11.6074 21.0113 12.4298 21.0247C13.2367 21.038 13.7902 21.5426 13.7991 22.2716C13.808 23.0474 13.2567 23.5297 12.3743 23.5208Z" fill="#0C144D"/>
<path d="M74.0722 23.5206C73.232 23.5206 72.7008 23.0627 72.6808 22.3225C72.6608 21.5557 73.2365 21.0222 74.0789 21.0244C74.8658 21.0266 75.4682 21.5468 75.4926 22.2492C75.5193 22.9871 74.9236 23.5206 74.0722 23.5206Z" fill="#0C144D"/>
<path d="M12.4387 29.1912C11.5807 29.2024 10.9828 28.6911 10.985 27.9509C10.9872 27.2463 11.5763 26.7106 12.3631 26.6928C13.2056 26.675 13.7991 27.1974 13.7968 27.9576C13.7968 28.7089 13.2789 29.1801 12.4387 29.1912Z" fill="#0C144D"/>
<path d="M74.0878 29.1908C73.2098 29.1953 72.663 28.7018 72.6808 27.9238C72.6963 27.197 73.2587 26.6969 74.0656 26.6924C74.8902 26.688 75.5126 27.2503 75.4926 27.9839C75.4726 28.6974 74.9014 29.1864 74.0878 29.1908Z" fill="#0C144D"/>
<path d="M7.37298 23.5208C6.56388 23.512 5.99485 23.0096 5.98595 22.2983C5.97929 21.5603 6.59944 21.0113 7.42854 21.0247C8.23319 21.038 8.79112 21.5448 8.80001 22.2716C8.8089 23.0407 8.25098 23.5297 7.37298 23.5208Z" fill="#0C144D"/>
<path d="M79.0869 23.5204C78.2155 23.5226 77.6598 23.0225 77.6798 22.2512C77.6976 21.5266 78.2644 21.0264 79.0691 21.022C79.8937 21.0176 80.5139 21.5821 80.4939 22.3157C80.4717 23.0314 79.9049 23.5182 79.0869 23.5204Z" fill="#0C144D"/>
<path d="M7.38854 29.1911C6.57722 29.1866 6.00374 28.6954 5.98595 27.9841C5.96817 27.2484 6.58611 26.6882 7.41299 26.6949C8.21764 26.7016 8.78445 27.2039 8.80001 27.9263C8.81779 28.6932 8.25987 29.1933 7.38854 29.1911Z" fill="#0C144D"/>
<path d="M79.0424 29.1911C78.2111 29.18 77.6821 28.7021 77.6798 27.9597C77.6776 27.1995 78.2711 26.6772 79.1135 26.6927C79.9049 26.7083 80.4895 27.2395 80.4939 27.9486C80.4983 28.6888 79.8982 29.2023 79.0424 29.1911Z" fill="#0C144D"/>
<path d="M33.0018 31.0558C33.0284 33.0941 31.3702 34.7924 29.3386 34.8079C27.327 34.8235 25.6199 33.1208 25.6199 31.1003C25.6177 29.0998 27.2425 27.4483 29.2519 27.4038C31.2813 27.3571 32.9751 29.0064 33.0018 31.0558ZM29.3542 32.2962C30.0054 32.2739 30.5322 31.6827 30.49 31.0181C30.45 30.3801 29.9121 29.8911 29.2764 29.9133C28.6495 29.9356 28.1227 30.4757 28.1227 31.0959C28.1205 31.7405 28.7162 32.3184 29.3542 32.2962Z" fill="#0C144D"/>
<path d="M60.8622 31.0936C60.8644 33.1119 59.1596 34.8167 57.1502 34.8078C55.123 34.7967 53.4581 33.0985 53.4803 31.0624C53.5026 29.0441 55.1274 27.4193 57.139 27.4015C59.164 27.3837 60.86 29.0664 60.8622 31.0936ZM57.1924 32.2961C57.8414 32.2761 58.3971 31.6737 58.3549 31.0313C58.3149 30.4067 57.7614 29.8977 57.1368 29.911C56.4722 29.9244 55.9498 30.4979 55.9899 31.1691C56.0276 31.8004 56.5767 32.3139 57.1924 32.2961Z" fill="#0C144D"/>
<path d="M39.5634 31.0582C39.5768 29.0132 41.2683 27.3594 43.2999 27.4017C45.3204 27.4439 46.9164 29.0732 46.9164 31.0959C46.9164 33.1409 45.2471 34.8169 43.2221 34.8036C41.1949 34.7924 39.5501 33.1076 39.5634 31.0582ZM44.4135 31.1693C44.4513 30.4869 43.9445 29.9312 43.2688 29.9134C42.6264 29.8979 42.0996 30.3824 42.0663 31.027C42.0307 31.6939 42.5553 32.2762 43.211 32.2963C43.8267 32.314 44.378 31.7983 44.4135 31.1693Z" fill="#0C144D"/>
</svg>
