<svg width="59" height="69" viewBox="0 0 59 69" fill="none" xmlns="http://www.w3.org/2000/svg">
<path d="M32.0483 0C33.2333 0.494924 33.9029 1.32037 33.8618 2.66813C33.8567 2.84624 34.1769 3.12709 34.3996 3.20416C36.6293 3.9748 38.6141 5.14618 40.3232 6.76795C43.524 9.80599 45.2776 13.5222 45.4437 17.9474C45.4626 18.4629 45.5345 18.6838 46.1236 18.7557C47.7522 18.9544 48.999 20.482 49.0041 22.1534C49.0092 23.8351 47.7899 25.3233 46.1544 25.5836C45.5739 25.6761 44.9814 25.6812 44.3717 25.7275C44.1867 26.9417 44.0514 28.1593 43.8117 29.3563C42.904 33.8911 41.0477 37.9635 37.8298 41.3458C37.4924 41.7003 37.3366 42.0514 37.3451 42.5497C37.3743 44.3273 37.3743 46.105 37.3451 47.8826C37.3383 48.3706 37.4736 48.5847 37.9634 48.7337C42.7499 50.1928 47.5296 51.6793 52.3076 53.164C56.0615 54.332 58.2724 57.2536 58.3306 61.1804C58.3666 63.6413 58.3426 66.1023 58.3357 68.5649C58.3323 69.464 57.9162 69.976 57.214 69.9983C56.4947 70.0223 56.0135 69.476 56.0084 68.5632C55.9964 66.2153 56.0067 63.8691 56.0032 61.5212C55.9998 58.3068 54.5202 56.298 51.4616 55.3475C48.4201 54.4022 45.3752 53.4689 42.3406 52.5064C41.9073 52.3694 41.659 52.4362 41.3628 52.7941C38.3007 56.4864 34.4475 59.0175 29.8888 60.4714C29.4503 60.6119 28.8886 60.605 28.4485 60.4646C23.8897 59.0106 20.0399 56.4727 16.9814 52.7787C16.6748 52.4071 16.4145 52.3814 15.9966 52.5133C12.8935 53.4894 9.78184 54.4382 6.67701 55.4075C3.94722 56.2586 2.38539 58.3393 2.35627 61.1976C2.3323 63.5215 2.35114 65.8471 2.35114 68.171C2.35114 68.3525 2.3597 68.5358 2.346 68.7173C2.28606 69.5222 1.79799 70.0308 1.12496 69.9983C0.465632 69.9657 0.0272219 69.4794 0.0237968 68.6848C0.0152341 66.0646 -0.0378546 63.441 0.0494849 60.8242C0.172788 57.1457 2.42135 54.2892 5.93034 53.1983C10.7306 51.705 15.5325 50.2185 20.3414 48.7542C20.8363 48.6035 21.0229 48.4066 21.0127 47.8689C20.975 46.069 21.0195 44.2674 20.9801 42.4692C20.9733 42.125 20.8209 41.7037 20.5897 41.4554C16.6611 37.2357 14.6865 32.1803 14.1283 26.5084C14.1128 26.3491 14.1009 26.1898 14.0786 26.0323C14.0649 25.9432 14.0341 25.8576 13.9981 25.7275C13.4638 25.6915 12.9226 25.6846 12.3883 25.6127C10.6056 25.3713 9.33658 23.907 9.35028 22.1397C9.36398 20.3775 10.6604 18.9475 12.45 18.7198C12.5818 18.7026 12.7103 18.6718 12.724 18.6684C12.9723 17.187 13.0819 15.7468 13.4638 14.3819C14.9999 8.91205 18.4832 5.20269 23.8315 3.27266C24.3299 3.09284 24.5525 2.90104 24.5354 2.32734C24.5011 1.11144 25.2872 0.450398 26.3061 0C28.2207 0 30.1336 0 32.0483 0ZM16.394 25.712C16.4676 26.4296 16.5258 27.0632 16.5995 27.6969C16.6303 27.9675 16.6885 28.2346 16.7416 28.5035C17.6373 32.9972 19.4029 37.0576 22.7492 40.2926C25.0457 42.5138 27.7566 43.5978 30.9745 42.9059C33.4731 42.3682 35.3346 40.8098 36.9221 38.8986C39.1005 36.2767 40.4757 33.2421 41.2977 29.9626C41.6419 28.5891 41.7875 27.1643 42.0324 25.7138C33.4063 25.712 24.9412 25.712 16.394 25.712ZM15.2671 18.5913C24.573 18.5913 33.8396 18.5913 43.1027 18.5913C43.3236 12.4005 38.5765 6.88269 33.8362 5.59829C33.8362 5.85859 33.8362 6.10691 33.8362 6.35523C33.8344 7.49407 33.8499 8.63462 33.8259 9.77174C33.8105 10.4756 33.3789 10.9209 32.7538 10.9568C32.0945 10.9945 31.6081 10.5664 31.5191 9.85737C31.4968 9.67755 31.5054 9.49431 31.5054 9.31107C31.5054 7.23719 31.5054 5.16501 31.5054 3.09113C31.5054 2.85138 31.5054 2.60991 31.5054 2.38214C29.8973 2.38214 28.3869 2.38214 26.8473 2.38214C26.8473 2.68526 26.8473 2.93529 26.8473 3.18532C26.8473 5.30373 26.8524 7.42385 26.8439 9.54226C26.8404 10.4636 26.3883 10.9791 25.6417 10.9602C24.9652 10.9431 24.5319 10.4687 24.5234 9.67755C24.508 8.31266 24.5199 6.94777 24.5199 5.57089C19.3241 7.02826 15.0051 12.7909 15.2671 18.5913ZM19.045 51.5885C19.1357 51.7272 19.1665 51.7889 19.2111 51.8385C21.8621 54.8132 25.1022 56.8905 28.8681 58.1561C29.0976 58.2331 29.4212 58.2057 29.6421 58.1013C31.3461 57.2998 33.0912 56.5617 34.7147 55.6181C36.4683 54.5991 37.9719 53.2291 39.3385 51.6005C38.2391 51.2546 37.2064 50.9326 36.1772 50.6072C35.2336 50.3092 35.0264 50.0301 35.0229 49.0283C35.0178 47.4784 35.0229 45.9303 35.0195 44.3804C35.0195 44.1938 34.9904 44.0088 34.9681 43.7451C31.0618 46.081 27.2223 46.0382 23.3332 43.7314C23.3332 45.5535 23.3349 47.2369 23.3332 48.9204C23.3314 50.0661 23.1619 50.2972 22.0847 50.6363C21.088 50.9514 20.0896 51.2614 19.045 51.5885ZM29.1763 21.0111C23.9377 21.0111 18.7007 21.0111 13.4621 21.0128C13.1898 21.0128 12.9124 21.0111 12.6452 21.0557C12.0424 21.155 11.7204 21.5609 11.6999 22.138C11.6793 22.686 11.9602 23.1107 12.5202 23.2511C12.8233 23.3282 13.1504 23.3419 13.4655 23.3419C23.9411 23.347 34.4184 23.3453 44.894 23.3436C45.144 23.3436 45.3975 23.3419 45.6407 23.2991C46.2777 23.1878 46.687 22.71 46.6682 22.1346C46.6477 21.5437 46.2178 21.1036 45.5722 21.0334C45.3239 21.006 45.0721 21.0111 44.8221 21.0111C39.6074 21.0111 34.391 21.0111 29.1763 21.0111Z" fill="#0C144D"/>
<path d="M18.6631 65.3247C18.6631 66.4395 18.6733 67.5544 18.6596 68.6692C18.6494 69.481 18.1853 69.9999 17.5071 69.9999C16.8375 69.9999 16.3443 69.4758 16.3391 68.6692C16.322 66.4635 16.3237 64.256 16.3374 62.0503C16.3426 61.1872 16.8221 60.6802 17.5413 60.7008C18.2383 60.7196 18.6511 61.206 18.6596 62.0503C18.6716 63.1412 18.6631 64.2321 18.6631 65.3247Z" fill="#0C144D"/>
<path d="M42.0187 65.3315C42.0187 66.4686 42.0341 67.6058 42.0118 68.7429C41.9998 69.3731 41.6967 69.8423 41.0408 69.9708C40.5133 70.0735 40.0972 69.8492 39.8489 69.3817C39.7478 69.1916 39.6999 68.9501 39.6982 68.7309C39.6879 66.4789 39.6828 64.2269 39.6947 61.9749C39.6999 61.1872 40.14 60.7145 40.8165 60.6991C41.5117 60.6837 41.993 61.1717 42.0118 61.9869C42.0375 63.1018 42.0187 64.2166 42.0187 65.3315Z" fill="#0C144D"/>
<path d="M11.6759 65.2888C11.6759 64.2202 11.6673 63.1499 11.6776 62.0812C11.6862 61.2079 12.128 60.6941 12.8421 60.6958C13.558 60.6975 13.9981 61.2061 14.0015 62.083C14.0084 64.2664 14.0101 66.4499 14.0015 68.6351C13.9981 69.4571 13.5511 69.976 12.8747 69.9983C12.176 70.0206 11.6879 69.4794 11.6793 68.6334C11.6656 67.5186 11.6759 66.4037 11.6759 65.2888Z" fill="#0C144D"/>
<path d="M46.6785 65.361C46.6785 66.4296 46.6853 67.5 46.6768 68.5686C46.6699 69.4437 46.2384 69.9763 45.5448 69.9986C44.8255 70.0208 44.3546 69.4677 44.3529 68.5634C44.346 66.4022 44.346 64.241 44.3529 62.0798C44.3563 61.2047 44.7981 60.6943 45.5157 60.6943C46.2298 60.696 46.6699 61.2081 46.6768 62.0832C46.687 63.1775 46.6785 64.2701 46.6785 65.361Z" fill="#0C144D"/>
</svg>
