<svg width="1368" height="982" viewBox="0 0 1368 982" fill="none" xmlns="http://www.w3.org/2000/svg">
<g clip-path="url(#clip0_957_275)">
<path d="M604.726 589.084L772.576 419.103C828.147 362.836 816.977 278.158 751.673 260.731L428.186 174.477C389.184 164.072 346.428 207.385 357.204 246.363L446.54 569.757C464.57 635.038 549.155 645.374 604.726 589.084Z" fill="#1F3C67"/>
<path d="M827.752 539.191H609.407C512.84 539.191 449.065 447.259 490.13 367.286L662.313 31.8877C684.166 -10.6367 750.212 -10.6367 772.065 31.8877L945.43 369.603C985.962 448.511 923.021 539.191 827.752 539.191Z" fill="#B1B5D0"/>
<path d="M896.185 558.077L677.167 482.901C615.153 461.604 594.807 387.099 639.162 343.555L847.056 139.415C888.839 98.374 964.085 124.213 971.987 182.287L1011.45 471.314C1019.84 532.957 958.199 579.351 896.185 558.077Z" fill="#DDDEE6"/>
<path d="M898.943 502.482L913.52 502.019L913.358 261.496C913.358 254.149 907.587 253.64 900.264 253.64C892.941 253.64 886.986 259.595 886.986 266.942L886.916 502.413L898.943 502.482Z" fill="black"/>
<path d="M742.101 358.364C744.071 358.364 746.087 357.9 747.964 356.997L906.127 278.877L913.218 264.115L913.334 245.367L736.215 333.127C729.633 336.372 726.922 344.344 730.189 350.948C732.507 355.629 737.211 358.364 742.101 358.364Z" fill="black"/>
<path d="M729.611 366.011L755.473 353.288L755.38 266.942L755.287 246.386L728.081 258.808L728.869 345.062C728.869 352.408 729.541 364.505 729.541 364.505" fill="black"/>
<path d="M592.096 349.882C593.973 349.882 595.873 349.488 597.681 348.63L747.709 278.992C754.337 275.91 757.234 267.985 754.175 261.334C751.093 254.683 743.19 251.786 736.563 254.868L586.511 324.506C579.883 327.588 576.986 335.514 580.045 342.165C582.293 347.031 587.09 349.882 592.096 349.882Z" fill="black"/>
<path d="M579.607 355.327C578.077 355.698 592.515 350.948 592.376 350.948L607.045 344.297L597.474 108.269C597.242 100.923 591.078 95.1757 583.755 95.4538C576.432 95.6855 570.685 101.873 570.963 109.219L578.842 337.09L579.607 355.327Z" fill="black"/>
<path d="M584.194 122.034C591.517 122.034 598.353 133.413 597.195 95.1758C597.195 95.1758 591.517 95.4539 584.194 95.4539L506.932 95.6393C506.932 95.6393 506.862 101.41 506.862 108.756C506.862 116.102 512.818 122.058 520.141 122.058L584.194 122.034Z" fill="black"/>
<path d="M520.187 503.34L533.651 503.155L533.42 109.103C533.42 101.757 527.464 95.8015 520.141 95.8015C512.818 95.8015 506.862 101.757 506.862 109.103L507.071 503.155L520.187 503.34Z" fill="black"/>
<path d="M0 977.898V737.421H27.4149L114.804 868.633L202.194 737.421H229.608V977.898H202.564V783.12L115.175 911.945H113.808L26.3952 783.445V977.898H0Z" fill="black"/>
<path d="M506.144 945.408C483.063 969.81 453.724 982 418.083 982C382.464 982 353.195 969.88 330.346 945.594C307.519 921.307 296.071 892.015 296.071 857.648C296.071 823.536 307.589 794.267 330.67 769.888C353.751 745.486 383.09 733.296 418.731 733.296C454.35 733.296 483.619 745.463 506.468 769.703C529.295 793.989 540.743 823.281 540.743 857.648C540.789 891.76 529.225 921.029 506.144 945.408ZM351.086 928.074C369 947.308 391.572 956.926 418.778 956.926C445.961 956.926 468.393 947.378 486.122 928.236C503.827 909.118 512.679 885.596 512.679 857.648C512.679 829.955 503.711 806.457 485.774 787.222C467.837 767.988 445.289 758.37 418.083 758.37C390.899 758.37 368.444 767.918 350.739 787.06C333.034 806.179 324.181 829.723 324.181 857.648C324.181 885.364 333.15 908.816 351.086 928.074Z" fill="black"/>
<path d="M607.23 977.898V737.421H632.606L783.747 930.136V737.421H810.142V977.898H788.544L633.626 780.71V977.898H607.23Z" fill="black"/>
<path d="M887.217 977.898V737.421H990.364C1019.84 737.421 1042.55 745.439 1058.57 761.453C1070.89 773.828 1077.06 789.841 1077.06 809.539C1077.06 828.773 1071.1 844.346 1059.24 856.258C1047.35 868.169 1031.61 875.932 1011.94 879.594L1085.61 977.852H1052.35L982.856 884.437H914.307V977.875H887.217V977.898ZM914.307 860.035H987.977C1006.26 860.035 1021.09 855.562 1032.54 846.64C1043.97 837.718 1049.67 825.482 1049.67 809.91C1049.67 795.032 1044.24 783.375 1033.38 775.033C1022.51 766.69 1007.49 762.472 988.302 762.472H914.261V860.035H914.307Z" fill="black"/>
<path d="M1123.69 977.898L1233.02 735.706H1258.37L1367.71 977.898H1338.58L1310.45 914.332H1179.88L1151.45 977.898H1123.69ZM1190.54 889.953H1299.85L1245.37 767.339L1190.54 889.953Z" fill="black"/>
</g>
<defs>
<clipPath id="clip0_957_275">
<rect width="1367.71" height="982" fill="white"/>
</clipPath>
</defs>
</svg>
